<?xml version="1.0" encoding="utf-8"?>
<!-- Generator: Adobe Illustrator 22.0.0, SVG Export Plug-In . SVG Version: 6.00 Build 0)  -->
<svg version="1.1" id="Layer_1" xmlns="http://www.w3.org/2000/svg" xmlns:xlink="http://www.w3.org/1999/xlink" x="0px" y="0px"
	 viewBox="0 0 50 45.8" style="enable-background:new 0 0 50 45.8;" xml:space="preserve">
<style type="text/css">
	.st0{fill:url(#Rectangle_52_1_);}
	.st1{fill:url(#Rectangle_53_1_);}
	.st2{fill:url(#Rectangle_54_1_);}
	.st3{fill:#27C34B;}
	.st4{fill:url(#Path_21_1_);stroke:#707070;stroke-width:0.3;}
</style>
<g id="on" transform="translate(-331.33 -111.661)">
	
		<linearGradient id="Rectangle_52_1_" gradientUnits="userSpaceOnUse" x1="258.58" y1="247.341" x2="258.58" y2="246.341" gradientTransform="matrix(-8 0 0 50 2406.051 -12207.4688)">
		<stop  offset="0" style="stop-color:#4E4E4E"/>
		<stop  offset="0.517" style="stop-color:#838383"/>
		<stop  offset="1" style="stop-color:#101010"/>
	</linearGradient>
	<rect id="Rectangle_52" x="333.4" y="109.6" class="st0" width="8" height="50"/>
	
		<linearGradient id="Rectangle_53_1_" gradientUnits="userSpaceOnUse" x1="258.58" y1="247.341" x2="258.58" y2="246.341" gradientTransform="matrix(-8 0 0 50 2443.8909 -12207.4688)">
		<stop  offset="0" style="stop-color:#4E4E4E"/>
		<stop  offset="0.483" style="stop-color:#959595"/>
		<stop  offset="1" style="stop-color:#101010"/>
	</linearGradient>
	<rect id="Rectangle_53" x="371.3" y="109.6" class="st1" width="8" height="50"/>
	
		<linearGradient id="Rectangle_54_1_" gradientUnits="userSpaceOnUse" x1="250.6967" y1="247.761" x2="250.6967" y2="246.761" gradientTransform="matrix(-30 0 0 40 7877.1533 -9755.8594)">
		<stop  offset="0" style="stop-color:#686767"/>
		<stop  offset="0.502" style="stop-color:#E5E5E5"/>
		<stop  offset="1" style="stop-color:#343434"/>
	</linearGradient>
	<rect id="Rectangle_54" x="341.2" y="114.6" class="st2" width="30" height="40"/>
	<g id="Group_69" transform="translate(0 6)">
		<path id="Path_20" class="st3" d="M374.5,128.6c-0.1-9.8-8.2-17.7-18-17.6c-9.8,0.1-17.7,8.2-17.6,18c0.1,9.8,8,17.6,17.8,17.6
			C366.6,146.5,374.5,138.5,374.5,128.6C374.5,128.6,374.5,128.6,374.5,128.6z M356.7,143.9c-2.4,0-4.8-0.6-6.9-1.7l5.4-6.8
			c0.7-0.9,1.9-1,2.8-0.3c0.1,0.1,0.2,0.2,0.3,0.3l5.4,6.8C361.5,143.3,359.1,143.9,356.7,143.9z M364.9,141.5l-3.1-8.1
			c-0.4-1,0.1-2.2,1.1-2.6c0.1-0.1,0.3-0.1,0.4-0.1l8.5-1.3C371.6,134.2,369,138.8,364.9,141.5z M371.8,127.9l-8.5-1.3
			c-1.1-0.2-1.8-1.2-1.7-2.3c0-0.1,0.1-0.3,0.1-0.4l3.1-8.1C369,118.4,371.6,122.9,371.8,127.9L371.8,127.9z M363.6,115l-5.4,6.8
			c-0.7,0.9-1.9,1-2.8,0.3c-0.1-0.1-0.2-0.2-0.3-0.3l-5.4-6.8C354.1,112.7,359.3,112.7,363.6,115z M348.5,115.7l3.1,8.1
			c0.4,1-0.1,2.2-1.1,2.6c-0.1,0.1-0.3,0.1-0.4,0.1l-8.5,1.3C341.8,122.9,344.3,118.4,348.5,115.7L348.5,115.7z M341.5,129.3
			l8.5,1.3c1.1,0.2,1.8,1.2,1.7,2.3c0,0.1-0.1,0.3-0.1,0.4l-3.1,8.1C344.3,138.8,341.8,134.2,341.5,129.3L341.5,129.3z"/>
		<g id="Group_68">
			
				<linearGradient id="Path_21_1_" gradientUnits="userSpaceOnUse" x1="257.407" y1="228.3452" x2="257.407" y2="227.3452" gradientTransform="matrix(4.844550e-16 8.771 7.6 0 -1374.9729 -2128.7493)">
				<stop  offset="0" style="stop-color:#534D4D"/>
				<stop  offset="1" style="stop-color:#110F0F"/>
			</linearGradient>
			<path id="Path_21" class="st4" d="M360.5,131.2v-4.4l-3.8-2.2l-3.8,2.2v4.4l3.8,2.2L360.5,131.2z"/>
		</g>
	</g>
</g>
</svg>
