<svg xmlns="http://www.w3.org/2000/svg" xmlns:xlink="http://www.w3.org/1999/xlink" width="50" height="45.84" viewBox="0 0 50 45.84">
  <defs>
    <linearGradient id="linear-gradient" x1="0.5" x2="0.5" y2="1" gradientUnits="objectBoundingBox">
      <stop offset="0" stop-color="#4e4e4e"/>
      <stop offset="0.517" stop-color="#838383"/>
      <stop offset="1" stop-color="#101010"/>
    </linearGradient>
    <linearGradient id="linear-gradient-2" x1="0.5" x2="0.5" y2="1" gradientUnits="objectBoundingBox">
      <stop offset="0" stop-color="#4e4e4e"/>
      <stop offset="0.483" stop-color="#959595"/>
      <stop offset="1" stop-color="#101010"/>
    </linearGradient>
    <linearGradient id="linear-gradient-3" x1="0.5" x2="0.5" y2="1" gradientUnits="objectBoundingBox">
      <stop offset="0" stop-color="#686767"/>
      <stop offset="0.502" stop-color="#e5e5e5"/>
      <stop offset="1" stop-color="#343434"/>
    </linearGradient>
    <linearGradient id="linear-gradient-4" x1="0.5" x2="0.5" y2="1" gradientUnits="objectBoundingBox">
      <stop offset="0" stop-color="#534d4d"/>
      <stop offset="1" stop-color="#110f0f"/>
    </linearGradient>
  </defs>
  <g id="off" transform="translate(-331.33 -111.661)">
    <rect id="Rectangle_52" data-name="Rectangle 52" width="8" height="50" transform="translate(381.33 149.501) rotate(90)" fill="url(#linear-gradient)"/>
    <rect id="Rectangle_53" data-name="Rectangle 53" width="8" height="50" transform="translate(381.33 111.661) rotate(90)" fill="url(#linear-gradient-2)"/>
    <rect id="Rectangle_54" data-name="Rectangle 54" width="30" height="40" transform="translate(376.33 119.661) rotate(90)" fill="url(#linear-gradient-3)"/>
    <g id="Group_69" data-name="Group 69" transform="translate(0 6)">
      <path id="Path_20" data-name="Path 20" d="M362.837,111.641a17.814,17.814,0,1,0,18,17.813A17.9,17.9,0,0,0,362.837,111.641Zm15.322,17.813a14.945,14.945,0,0,1-1.716,6.95l-6.808-5.409a1.964,1.964,0,0,1,0-3.082l6.807-5.414A14.951,14.951,0,0,1,378.159,129.454Zm-2.439-8.188-8.137,3.125a2,2,0,0,1-2.7-1.54l-1.335-8.524A15.324,15.324,0,0,1,375.72,121.266Zm-13.605-6.939-1.329,8.524a2,2,0,0,1-2.695,1.542l-8.144-3.12A15.316,15.316,0,0,1,362.115,114.327ZM349.229,122.5l6.8,5.405a1.964,1.964,0,0,1,0,3.081l-6.8,5.421a14.955,14.955,0,0,1,0-13.907Zm.725,15.14,8.136-3.13a2,2,0,0,1,2.7,1.54l1.335,8.53A15.321,15.321,0,0,1,349.954,137.642Zm13.606,6.939,1.329-8.529a2,2,0,0,1,2.7-1.542l8.139,3.124A15.326,15.326,0,0,1,363.56,144.581Z" transform="translate(-6.508 -1.21)" fill="#db0000"/>
      <g id="Group_68" data-name="Group 68">
        <path id="Path_21" data-name="Path 21" d="M374.836,136.05H370.45l-2.193,3.8,2.193,3.8h4.385l2.193-3.8Z" transform="translate(-15.927 -11.592)" stroke="#707070" stroke-width="0.3" fill="url(#linear-gradient-4)"/>
      </g>
    </g>
  </g>
</svg>
