<svg id="Layer_1" data-name="Layer 1" xmlns="http://www.w3.org/2000/svg" viewBox="0 0 220 220"><defs><style>.cls-1{fill:#0f2a4c;}.cls-2{fill:#1b4c78;}.cls-3{fill:#fff;}.cls-4{fill:#ff9c00;}.cls-5{fill:#fe8102;}.cls-6{fill:#7dc733;}.cls-7{fill:#69af17;}.cls-8{fill:#f0332e;}.cls-9{fill:#ba2526;}</style></defs><title>Meter</title><rect class="cls-1" x="86.35" y="179.04" width="47.29" height="28.71"/><rect class="cls-2" x="67.77" y="206.49" width="84.45" height="13.51" rx="6.76" ry="6.76"/><circle class="cls-2" cx="110" cy="94.59" r="94.59"/><circle class="cls-1" cx="110" cy="94.59" r="84.45"/><circle class="cls-3" cx="110" cy="94.59" r="76.01"/><path class="cls-4" d="M107.47,37.22a57,57,0,0,0-25,7l8.45,14.63a40.16,40.16,0,0,1,16.53-4.67Z"/><path class="cls-5" d="M136.21,43.5a57.08,57.08,0,0,0-25.37-6.32V54.07a40.35,40.35,0,0,1,16.92,4.08Z"/><path class="cls-6" d="M52.66,92.05h16.9a40.32,40.32,0,0,1,4.68-16.52L59.6,67.08A57,57,0,0,0,52.66,92.05Z"/><path class="cls-7" d="M76,72.62A40.6,40.6,0,0,1,88,60.53L79.58,45.89A57.77,57.77,0,0,0,61.3,64.16Z"/><path class="cls-8" d="M130.73,59.75a40.82,40.82,0,0,1,12.86,12.16l14.65-8.45a57.69,57.69,0,0,0-19.06-18.33Z"/><path class="cls-9" d="M145.37,74.79a40.41,40.41,0,0,1,5.07,17.26h16.9A57.19,57.19,0,0,0,160,66.34Z"/><circle class="cls-1" cx="110" cy="94.59" r="8.45"/><circle class="cls-4" cx="110" cy="126.68" r="10.13"/><circle class="cls-8" cx="140.4" cy="126.68" r="10.13"/><circle class="cls-6" cx="79.6" cy="126.68" r="10.13"/><path class="cls-1" d="M107,91.6l34.6-31.7a2.19,2.19,0,0,1,3,.06h0a2.19,2.19,0,0,1,.06,3L113,97.57Z"/><circle class="cls-2" cx="110" cy="94.59" r="5.07"/></svg>