<svg id="Layer_1" data-name="Layer 1" xmlns="http://www.w3.org/2000/svg" viewBox="0 0 220 220"><defs><style>.cls-1{fill:#b7281f;}.cls-2{fill:#f93332;}.cls-3{fill:#fff;}.cls-4{fill:#141414;}</style></defs><title>Meter</title><rect class="cls-1" x="86.35" y="179.04" width="47.29" height="28.71"/><rect class="cls-2" x="67.77" y="206.49" width="84.45" height="13.51" rx="6.76" ry="6.76"/><circle class="cls-2" cx="110" cy="94.59" r="94.59"/><circle class="cls-1" cx="110" cy="94.59" r="84.45"/><circle class="cls-3" cx="110" cy="94.59" r="76.01"/><circle class="cls-1" cx="110" cy="94.59" r="8.45"/><path class="cls-1" d="M107,91.6l34.6-31.7a2.19,2.19,0,0,1,3,.06h0a2.19,2.19,0,0,1,.06,3L113,97.57Z"/><circle class="cls-2" cx="110" cy="94.59" r="5.07"/><path id="_Path_" data-name="&lt;Path&gt;" class="cls-4" d="M89.53,44.52l4-1.45L90.2,26.82c-1.45.43-2.9.89-4.35,1.42S83,29.34,81.61,30Z"/><path id="_Path_2" data-name="&lt;Path&gt;" class="cls-4" d="M73.64,54.54l3.23-2.71L68.22,37.68c-1.22.9-2.43,1.83-3.6,2.82s-2.31,2-3.41,3.06Z"/><path id="_Path_3" data-name="&lt;Path&gt;" class="cls-4" d="M62.14,69.39l2.11-3.66-13-10.33c-.83,1.27-1.65,2.55-2.42,3.88s-1.47,2.68-2.15,4Z"/><path id="_Path_4" data-name="&lt;Path&gt;" class="cls-4" d="M56.4,87.28l.74-4.16L41.41,77.85c-.35,1.48-.68,3-.94,4.48s-.47,3-.65,4.53Z"/><path id="_Path_5" data-name="&lt;Path&gt;" class="cls-4" d="M57.14,106.05l-.74-4.16-16.58.43c.18,1.51.38,3,.65,4.53s.59,3,.94,4.47Z"/><path id="_Path_6" data-name="&lt;Path&gt;" class="cls-4" d="M64.25,123.44l-2.11-3.66L46.7,125.85c.68,1.36,1.38,2.71,2.15,4s1.59,2.62,2.42,3.88Z"/><path id="_Path_7" data-name="&lt;Path&gt;" class="cls-4" d="M76.87,137.35l-3.23-2.72-12.43,11c1.1,1,2.23,2.07,3.41,3.06s2.38,1.91,3.6,2.82Z"/><path id="_Path_8" data-name="&lt;Path&gt;" class="cls-4" d="M93.5,146.1l-4-1.44-7.92,14.57c1.39.6,2.8,1.18,4.24,1.71s2.9,1,4.35,1.41Z"/><path id="_Path_9" data-name="&lt;Path&gt;" class="cls-4" d="M112.11,148.64h-4.22L105.43,165c1.51.09,3,.15,4.57.15s3.06-.06,4.57-.15Z"/><path id="_Path_10" data-name="&lt;Path&gt;" class="cls-4" d="M130.47,144.66l-4,1.44,3.3,16.25c1.45-.43,2.9-.89,4.35-1.41s2.85-1.11,4.24-1.71Z"/><path id="_Path_11" data-name="&lt;Path&gt;" class="cls-4" d="M146.36,134.63l-3.23,2.72,8.65,14.15c1.22-.91,2.43-1.84,3.6-2.82s2.31-2,3.41-3.06Z"/><path id="_Path_12" data-name="&lt;Path&gt;" class="cls-4" d="M157.86,119.78l-2.11,3.66,13,10.33c.83-1.26,1.65-2.55,2.42-3.88s1.47-2.68,2.15-4Z"/><path id="_Path_13" data-name="&lt;Path&gt;" class="cls-4" d="M163.6,101.89l-.74,4.16,15.73,5.27c.35-1.47.68-3,.94-4.47s.47-3,.65-4.53Z"/><path id="_Path_14" data-name="&lt;Path&gt;" class="cls-4" d="M162.86,83.12l.74,4.16,16.58-.42c-.18-1.51-.38-3-.65-4.53s-.59-3-.94-4.48Z"/><path id="_Path_15" data-name="&lt;Path&gt;" class="cls-4" d="M155.75,65.73l2.11,3.66,15.44-6.07c-.68-1.36-1.38-2.71-2.15-4s-1.59-2.61-2.42-3.88Z"/><path id="_Path_16" data-name="&lt;Path&gt;" class="cls-4" d="M143.13,51.83l3.23,2.71,12.43-11c-1.1-1.05-2.23-2.07-3.41-3.06s-2.38-1.92-3.6-2.82Z"/><path id="_Path_17" data-name="&lt;Path&gt;" class="cls-4" d="M126.5,43.07l4,1.45L138.39,30c-1.39-.61-2.8-1.19-4.24-1.71s-2.9-1-4.35-1.42Z"/><path class="cls-4" d="M107.89,40.54h4.22l2.46-16.4c-1.51-.1-3-.16-4.57-.16s-3.06.06-4.57.16Z"/></svg>